<svg width="24" height="24" viewBox="0 0 24 24" fill="none" xmlns="http://www.w3.org/2000/svg">
<g clip-path="url(#clip0_108_845)">
<path d="M23.7885 4.76758L16.5098 11.9994L23.7885 19.2312C23.92 18.9562 23.9999 18.6522 23.9999 18.3275V5.67129C23.9999 5.34658 23.92 5.0426 23.7885 4.76758Z" fill="black"/>
<path d="M21.89 3.5625H2.10879C1.78408 3.5625 1.4801 3.64233 1.20508 3.77391L10.508 13.03C11.3306 13.8525 12.6682 13.8525 13.4908 13.03L22.7937 3.77391C22.5187 3.64233 22.2147 3.5625 21.89 3.5625Z" fill="black"/>
<path d="M0.211406 4.76758C0.0798281 5.0426 0 5.34658 0 5.67129V18.3275C0 18.6522 0.0798281 18.9562 0.211406 19.2312L7.49011 11.9994L0.211406 4.76758Z" fill="black"/>
<path d="M15.515 12.9941L14.485 14.0241C13.1144 15.3947 10.8843 15.3947 9.51373 14.0241L8.48379 12.9941L1.20508 20.226C1.4801 20.3575 1.78408 20.4374 2.10879 20.4374H21.89C22.2147 20.4374 22.5187 20.3575 22.7937 20.226L15.515 12.9941Z" fill="black"/>
</g>
<defs>
<clipPath id="clip0_108_845">
<rect width="24" height="24" fill="white"/>
</clipPath>
</defs>
</svg>
