<svg width="114" height="30" viewBox="0 0 114 30" fill="none" xmlns="http://www.w3.org/2000/svg">
<path d="M105.05 29.6299H4.61011C1.72948 29.6299 -0.446532 27.2562 0.0784746 24.6829L4.4046 3.42444C4.80872 1.43946 6.71359 -0.000244141 8.93623 -0.000244141H109.748C112.628 -0.000244141 114.433 2.37347 113.91 4.94671L109.584 26.2035C109.178 28.1885 107.273 29.6299 105.05 29.6299Z" fill="#070707"/>
<path d="M42.3276 12.7701C43.2947 8.80013 40.839 5.57153 36.8531 5.57153H33.2488H30.9605H28.6498L24.3496 23.2729H28.9486L29.7517 19.9686H33.3473C33.5545 19.9686 33.7617 19.9549 33.969 19.9377L35.5164 23.2729H40.7923L38.4557 18.2382C40.3278 16.9189 41.794 14.958 42.3276 12.7701ZM30.6307 16.3427L32.3663 9.19747H35.297C37.6682 9.19747 38.3555 10.8006 37.8754 12.7701C37.3953 14.7396 35.9516 16.3427 33.5562 16.3427H30.6307Z" fill="white"/>
<path d="M74.0696 15.5285C73.757 15.0486 73.3305 14.6581 72.7968 14.3605C73.574 13.9666 74.2199 13.4455 74.7224 12.8021C75.3372 12.0161 75.6705 11.0597 75.7172 9.96229C75.7742 8.61891 75.2733 7.56794 74.232 6.84206C73.2199 6.13683 71.7434 5.77905 69.8419 5.77905H61.2968L57 23.4787H66.362C68.7522 23.4787 70.7192 23.0022 72.2079 22.0613C73.7329 21.0998 74.5463 19.6636 74.624 17.7955C74.662 16.9131 74.4737 16.1494 74.0696 15.5285ZM63.2517 16.2337H67.8749C70.2081 16.2337 70.1614 17.3724 70.1459 17.7474C70.1148 18.4681 69.8229 19.0013 69.2513 19.3797C68.6555 19.7736 67.8162 19.9732 66.7558 19.9732H62.3554L63.2517 16.2337ZM70.1493 12.2483C69.5967 12.6319 68.8126 12.8262 67.8196 12.8262H64.0617L64.9217 9.28114H68.7574C71.0422 9.28114 70.999 10.3097 70.9852 10.6486C70.9558 11.3538 70.683 11.8785 70.1493 12.2483Z" fill="#3486E3"/>
<path d="M90.6348 9.27266L91.5622 5.57104H78.5924L74.2939 23.2724H87.5797L88.5071 19.5708H79.6839L80.518 16.1014H87.9579L88.8266 12.4978H81.4109L82.1863 9.27266H90.6348Z" fill="#3486E3"/>
<path d="M92.6987 5.57104L91.7695 9.32254H96.9263L93.5535 23.2724H98.0679L101.465 9.32254H107.335L108.262 5.57104H92.6987Z" fill="#3486E3"/>
<path d="M22.4908 16.3421L23.2955 13.0379H18.6966L17.8918 16.3421H14.3463H13.0251L23.2265 5.61914H17.9522L7.22067 16.8977L6.47461 19.9681H8.86477H9.57629H13.4638H17.0093L16.2045 23.2723H20.8035L21.6083 19.9681H25.1503L26.0346 16.3421H22.4908Z" fill="white"/>
<path d="M54.7128 23.2724H59.3981L56.1513 5.61743H55.1031H51.466H50.4177L38.5723 23.2724H43.2576L45.4751 19.9681H54.1049L54.7128 23.2724ZM47.9084 16.3421L52.2483 9.87292L53.4382 16.3421H47.9084Z" fill="white"/>
</svg>
