<svg width="24" height="24" viewBox="0 0 24 24" fill="none" xmlns="http://www.w3.org/2000/svg">
<path d="M18.8921 0.671901V0.669422C18.4661 0.241178 17.887 0.000247934 17.283 0H6.71354C5.45819 0.00409091 4.4416 1.02069 4.4375 2.27603V21.7215C4.43775 22.3255 4.67868 22.9046 5.10693 23.3306C5.53232 23.7582 6.11038 23.9991 6.71354 24H17.2854C17.8886 23.9991 18.4667 23.7582 18.8921 23.3306C19.3197 22.9052 19.5606 22.3271 19.5615 21.7239V2.27851C19.5606 1.67535 19.3197 1.0973 18.8921 0.671901ZM11.9994 22.4553C11.6598 22.4553 11.3846 22.1801 11.3846 21.8405C11.3846 21.5009 11.6598 21.2256 11.9994 21.2256C12.3391 21.2256 12.6144 21.5009 12.6144 21.8405C12.6144 22.1801 12.3391 22.4553 11.9994 22.4553ZM17.754 18.595C17.754 19.4166 17.088 20.0827 16.2664 20.0827H7.73007C6.90847 20.0827 6.24246 19.4166 6.24246 18.595V4.10331C6.24246 3.28172 6.90847 2.6157 7.73007 2.6157H16.2689C17.0905 2.6157 17.7565 3.28172 17.7565 4.10331L17.754 18.595Z" fill="black"/>
</svg>
